# xmcd
#
# Track frame offsets: 
#        150
#        16629
#        37589
#        55026
#        73656
#        88949
#        106747
#        121446
#        139689
#        152376
#        166322
#
# Disc length: 2422 seconds
#
# Revision: 0
# Processed by: cddbd v1.5.2PL0 Copyright (c) Steve Scherf et al.
# Submitted via: ExactAudioCopy v0.95a5
#
DISCID=7a09740b
DTITLE=Various Artist - Hawaiian Cafe Covers disc1
DYEAR=2013
DGENRE=Country
TTITLE0=Happpy Pills
TTITLE1=You and I
TTITLE2=I want it that way
TTITLE3=Never know
TTITLE4=Love Love Love
TTITLE5=Heartbeat
TTITLE6=Little broken hearts
TTITLE7=If I had eyes
TTITLE8=F-Stop blues
TTITLE9=Don't know why
TTITLE10=Sunrise
EXTD=
EXTT0=
EXTT1=
EXTT2=
EXTT3=
EXTT4=
EXTT5=
EXTT6=
EXTT7=
EXTT8=
EXTT9=
EXTT10=
PLAYORDER=
